<svg id="logo" xmlns="http://www.w3.org/2000/svg" viewBox="0 0 208 56.45"><defs><style>.cls-1{fill:none;}.cls-2{fill:#fb0000;}.cls-3{fill:#bc0000;}.cls-4{fill:#d2eef5;}.cls-5{fill:#bce6ef;}.cls-6{fill:#962447;}.cls-7{fill:#f49200;}.cls-8{fill:#007590;}</style></defs><title>O-CloudSolutionHubs-BG-rgb</title><rect id="Clearspace" class="cls-1" width="208" height="56.45"/><path class="cls-2" d="M94.12,21h6.55l-3.46-5.58L90.86,25.53H88l7.73-12.1a1.84,1.84,0,0,1,3,0l7.75,12.12h-2.89l-1.36-2.25H95.57L94.12,21m30,2.25V12.77H121.7V24.31a1.18,1.18,0,0,0,.36.85,1.24,1.24,0,0,0,.89.37h11.18l1.46-2.25H124.16M83.56,21.4a4.32,4.32,0,0,0,0-8.63H72.82V25.53h2.45V15H83.4a2.07,2.07,0,0,1,0,4.13H76.48l7.33,6.38h3.56L82.44,21.4h1.12M57.72,25.53h7.42a6.38,6.38,0,0,0,0-12.76H57.72a6.38,6.38,0,1,0,0,12.76M65,23.28H57.89a4.13,4.13,0,0,1,0-8.26H65a4.13,4.13,0,1,1,0,8.26m46.6,2.25h7.57l1.43-2.25h-8.84a4.13,4.13,0,1,1,0-8.26h7.2l1.45-2.26h-8.81a6.38,6.38,0,1,0,0,12.76m30-2.25a4.13,4.13,0,0,1-4-3H148.1L149.55,18H137.61a4.13,4.13,0,0,1,4-3h7.2l1.44-2.26h-8.8a6.38,6.38,0,0,0,0,12.76H149l1.44-2.25h-8.85m10-9.15a1.13,1.13,0,1,1,1.13,1.13,1.13,1.13,0,0,1-1.13-1.12m1.13,1.43a1.43,1.43,0,1,0-1.44-1.43,1.42,1.42,0,0,0,1.44,1.43m-.14-2.28a1.45,1.45,0,0,1,.43,0,.45.45,0,0,1,.3.45,1.18,1.18,0,0,1,0,.13.4.4,0,0,1-.2.28l-.06,0,.37.67H153l-.33-.62h-.22v.62h-.32V13.28h.4m.11.73a.28.28,0,0,0,.26-.1.16.16,0,0,0,0-.13.22.22,0,0,0-.12-.2.73.73,0,0,0-.3,0h-.08V14h.2"/><path d="M58.16,36a2,2,0,0,0-2.27-1.82c-2.53,0-3,2.59-3,4.34,0,2,.57,4.12,3,4.12a2.28,2.28,0,0,0,1.7-.63,2.07,2.07,0,0,0,.51-1.11h1.6c-.22,2.07-2.12,2.93-3.93,2.93-3.7,0-4.41-3.26-4.41-5.3,0-2.21.86-5.52,4.6-5.52,1.48,0,3.58.6,3.77,3Zm3.62-2.82h1.37V43.7H61.78Zm7.19,3c2.93,0,3.58,2.3,3.58,3.83,0,2.14-1.21,3.92-3.7,3.92s-3.6-1.67-3.6-3.81C65.25,38.33,66.1,36.21,69,36.21Zm-.09,6.73c1,0,2.21-.74,2.21-2.94,0-1.82-.84-2.78-2.12-2.78-.87,0-2.29.55-2.29,2.84C66.68,41.55,67.32,42.93,68.88,42.93Zm7-6.54v4.7c0,.71.16,1.62,1.56,1.62a2,2,0,0,0,1.72-.82,2.36,2.36,0,0,0,.31-1.37V36.39h1.41v5.94c0,.15,0,1,0,1.37H79.47l0-1.25a2.29,2.29,0,0,1-2.33,1.32,2.34,2.34,0,0,1-2.65-2.47V36.39Zm12.63-3.19h1.37v9.33c0,.16,0,.79.06,1.16H88.55l0-1.16a2.08,2.08,0,0,1-.66.77,3.31,3.31,0,0,1-1.8.54c-1,0-3.14-.51-3.14-3.71,0-2.78,1.59-4,3.3-4a2.36,2.36,0,0,1,2.27,1.24ZM88,37.91a2,2,0,0,0-1.6-.74c-2,0-2,2.43-2,2.93,0,1.3.33,2.79,2,2.79,2.15,0,2.15-2.37,2.15-2.94A3.13,3.13,0,0,0,88,37.91Zm10,2.72c0,.73.12,2.08,2.53,2.08,2.18,0,2.46-1.35,2.46-1.88,0-1.18-.95-1.41-2.42-1.78a9.35,9.35,0,0,1-2.85-.93,2.37,2.37,0,0,1-1.09-2.07c0-2.14,2-3.07,4-3.07a4.11,4.11,0,0,1,3,1,2.7,2.7,0,0,1,.64,1.79h-1.51c-.07-1.31-1.18-1.6-2.21-1.6-1.46,0-2.33.66-2.33,1.7s.61,1.25,1.89,1.56c2.5.64,2.78.7,3.39,1.11a2.41,2.41,0,0,1,1,2.1c0,1.86-1.46,3.28-4.15,3.28a4.23,4.23,0,0,1-3.26-1.19,3.28,3.28,0,0,1-.61-2.12Zm12-4.43c2.93,0,3.58,2.3,3.58,3.83,0,2.14-1.21,3.92-3.7,3.92s-3.6-1.67-3.6-3.81C106.26,38.33,107.1,36.21,110,36.21Zm-.09,6.73c1,0,2.21-.74,2.21-2.94,0-1.82-.84-2.78-2.12-2.78-.87,0-2.29.55-2.29,2.84C107.68,41.55,108.32,42.93,109.88,42.93Zm5.91-9.72h1.37V43.7h-1.37Zm5.51,3.19v4.7c0,.71.16,1.62,1.56,1.62a2,2,0,0,0,1.72-.82,2.36,2.36,0,0,0,.31-1.37V36.39h1.41v5.94c0,.15,0,1,0,1.37h-1.43l0-1.25a2.29,2.29,0,0,1-2.33,1.32,2.34,2.34,0,0,1-2.65-2.47V36.39Zm6.81,0h1.29V34.84l1.35-.44v2h1.63v1h-1.63v4.38c0,.36,0,1,1,1a3,3,0,0,0,.66-.07v1.06a6.77,6.77,0,0,1-1.14.09c-1.25,0-1.85-.36-1.85-1.56V37.37h-1.29Zm6.13-3.14h1.65v1.5h-1.65Zm.15,3.17h1.37V43.7h-1.37Zm7.28-.19c2.92,0,3.58,2.3,3.58,3.83,0,2.14-1.21,3.92-3.7,3.92s-3.6-1.67-3.6-3.81C137.95,38.33,138.79,36.21,141.66,36.21Zm-.09,6.73c1,0,2.21-.74,2.21-2.94,0-1.82-.84-2.78-2.12-2.78-.87,0-2.29.55-2.29,2.84C139.37,41.55,140,42.93,141.57,42.93Zm5.85-5.69v-.84h1.37v1.18a2.38,2.38,0,0,1,2.34-1.32,2.44,2.44,0,0,1,2.65,2.49v5h-1.4V39.06a1.65,1.65,0,0,0-.39-1.25,1.88,1.88,0,0,0-1.3-.5,1.94,1.94,0,0,0-1.91,2.18V43.7h-1.37Zm14.93-4V37.7h5V33.19h1.46V43.7h-1.46V39h-5V43.7h-1.46V33.19ZM173,36.4v4.7c0,.71.16,1.61,1.56,1.61a2,2,0,0,0,1.72-.81,2.36,2.36,0,0,0,.31-1.37V36.4H178v5.93c0,.15,0,1,0,1.37h-1.42l0-1.25a2.29,2.29,0,0,1-2.33,1.32,2.34,2.34,0,0,1-2.65-2.47V36.4Zm9,1.05a2.44,2.44,0,0,1,2.39-1.25,3,3,0,0,1,2.31.93,3.84,3.84,0,0,1,.86,2.75,4.21,4.21,0,0,1-.7,2.66,3.09,3.09,0,0,1-2.56,1.25,2.89,2.89,0,0,1-1.63-.47,2.34,2.34,0,0,1-.71-.74l0,1.11H180.6l0-1.31v-9.2H182Zm2.07-.32c-2.1,0-2.1,2.45-2.1,2.91s0,2.77,2,2.77c1.69,0,2.11-1.64,2.11-2.84C186.12,39.25,186,37.14,184.07,37.14Zm6.68,4.4c0,.55.28,1.32,1.6,1.32a1.49,1.49,0,0,0,1.28-.47,1.14,1.14,0,0,0,.23-.68c0-.71-.51-.84-1.6-1.09-1.53-.35-2.81-.66-2.81-2.18,0-1.34,1.17-2.21,2.85-2.21.92,0,2.2.26,2.63,1.14a2.32,2.32,0,0,1,.19,1.06h-1.4c0-1.11-.92-1.19-1.41-1.19-.2,0-1.49,0-1.49,1,0,.67.66.83,1,.93,2,.48,2.46.6,2.9,1a1.81,1.81,0,0,1,.55,1.35,2.22,2.22,0,0,1-1,1.85,4.11,4.11,0,0,1-2.17.49c-1.49,0-2.87-.61-2.85-2.37Z"/><path class="cls-2" d="M41.62,33.39l-1.85-1.24a.32.32,0,0,0-.36,0l-1.92,1.28L35,32V24.37a.92.92,0,0,0-.42-.72L27.75,19.8V17.6h1.37a.32.32,0,0,0,.32-.32v-3a.32.32,0,0,0-.14-.27l-1.85-1.24a.32.32,0,0,0-.36,0l-1.85,1.24a.32.32,0,0,0-.14.27v3a.32.32,0,0,0,.32.32h1.37V19.8L20,23.65a.92.92,0,0,0-.42.72V32L17,33.43l-1.92-1.28a.32.32,0,0,0-.36,0l-1.85,1.24a.32.32,0,0,0-.14.27v3a.32.32,0,0,0,.32.32h3.71a.32.32,0,0,0,.32-.32V34.5L20,32.86l6.82,3.84a1,1,0,0,0,.84,0l6.82-3.84,2.91,1.64v2.11a.32.32,0,0,0,.32.32h3.71a.32.32,0,0,0,.32-.32v-3A.32.32,0,0,0,41.62,33.39ZM16.15,36H13.73V34l1.21-.81,1.21.81Zm9.91-19.33v-2l1.21-.81,1.21.81v2ZM40.8,36H38.38V34l1.21-.81L40.8,34Z"/><polygon class="cls-1" points="20.5 32.02 27.27 35.82 27.27 20.64 20.5 24.45 20.5 32.02"/><polygon class="cls-3" points="27.27 35.82 20.5 32.02 20.5 24.45 27.27 20.64 27.27 35.82"/><path class="cls-4" d="M31,26.72H30.8a2.09,2.09,0,0,0-2.67-1.34,2.36,2.36,0,0,0-4.24.79h-.06a2.36,2.36,0,0,0,0,4.71H31a2.08,2.08,0,1,0,0-4.17Z"/><path class="cls-5" d="M31,26.72H30.8a2.09,2.09,0,0,0-3.23-1.05,2,2,0,0,0-3.17,1.23h-.21a2,2,0,0,0,0,4H31a2.08,2.08,0,1,0,0-4.17Z"/><path class="cls-6" d="M41.62,19.37l-1.85-1.24a.32.32,0,0,0-.36,0l-1.85,1.24a.32.32,0,0,0-.14.27V22l-2.91,1.64.07,0a.92.92,0,0,1,.42.72v.07l2.7-1.52h3.74a.32.32,0,0,0,.32-.32v-3A.32.32,0,0,0,41.62,19.37Zm-.82,2.58H38.38V20l1.21-.81L40.8,20Z"/><path class="cls-7" d="M29.3,40.16l-1.55-1V36.66l-.06,0a1,1,0,0,1-.84,0l-.06,0v2.46l-1.55,1a.32.32,0,0,0-.14.27v3a.32.32,0,0,0,.32.32h3.71a.32.32,0,0,0,.32-.32v-3A.32.32,0,0,0,29.3,40.16Zm-.82,2.58H26.06v-2L27.27,40l1.21.81Z"/><path class="cls-8" d="M19.53,24.37a.92.92,0,0,1,.42-.72l.07,0L17.12,22V19.64a.32.32,0,0,0-.14-.27l-1.85-1.24a.32.32,0,0,0-.36,0l-1.85,1.24a.32.32,0,0,0-.14.27v3a.32.32,0,0,0,.32.32h3.74l2.7,1.52Zm-3.38-2.42H13.73V20l1.21-.81,1.21.81Z"/></svg>